<?xml version="1.0" encoding="UTF-8"?>
<svg width="129px" height="127px" viewBox="0 0 129 127" version="1.1" xmlns="http://www.w3.org/2000/svg" xmlns:xlink="http://www.w3.org/1999/xlink">
    <!-- Generator: Sketch 47 (45396) - http://www.bohemiancoding.com/sketch -->
    <title>Group 5</title>
    <desc>Created with Sketch.</desc>
    <defs></defs>
    <g id="Page-1" stroke="none" stroke-width="1" fill="none" fill-rule="evenodd">
        <g id="003-stamp" fill-rule="nonzero">
            <g id="Group-5">
                <path d="M83.1211899,43.1539708 C86.7715216,39.1051252 89,33.635724 89,27.5514701 C89,13.5600473 77.4334486,2.40940767 63.2349421,3.02426031 C51.264914,3.63911295 41.1202158,13.1573598 40.101511,25.3255396 C39.4859546,32.0243181 41.714433,38.2994222 45.5771726,42.9631205 C50.8617655,49.2378967 53.8965408,57.1450657 53.8965408,65.2643998 L53.8965408,77.6234298 L47.6145823,77.6234298 L47.6145823,91 L81.29586,91 L81.29586,77.6234298 L75.0139015,77.6234298 L75.0139015,66.0701027 C74.9925622,57.7389314 77.6455283,49.428747 83.1211899,43.1539708 Z" id="Shape" fill="#FFFFFF"></path>
                <path d="M115.91969,89 L15.1015083,89 C8.43943343,89 3,94.6023725 3,101.464011 L3,118.488116 L10.0628821,118.488116 C10.0628821,123.04821 13.6890623,127 18.3272074,127 L112.672793,127 C117.100261,127 120.937118,123.265197 120.937118,118.488116 L128,118.488116 L128,108.108662 L128,101.464011 C128,94.6023725 122.560567,89 115.91969,89 Z" id="Shape" fill="#FDBF5E"></path>
                <g id="Group" fill="#193651">
                    <path d="M114.793061,87.7755838 L83.1623258,87.7755838 L83.1623258,74.4361097 L45.7190985,74.4361097 L45.7190985,87.7755838 L14.0883636,87.7755838 C6.44413636,87.7755838 0,94.0329587 0,101.918199 L0,118.492149 C0,119.697189 0.800386364,120.521586 2.02165152,120.521586 L126.880947,120.521586 C128.081364,120.521586 128.902598,119.718117 128.902598,118.492149 L128.902598,101.918199 C128.881424,94.0329587 122.648053,87.7755838 114.793061,87.7755838 Z M49.741553,78.664048 L79.1398712,78.664048 L79.1398712,87.754328 L49.741553,87.754328 L49.741553,78.664048 Z M124.859295,116.462713 L4.02212879,116.462713 L4.02212879,101.897271 C4.02212879,96.4430372 8.44461364,91.7922723 14.0883636,91.7922723 L114.771886,91.7922723 C120.205197,91.7922723 124.838121,96.2317874 124.838121,101.897271 L124.838121,116.462713 L124.859295,116.462713 Z" id="Shape"></path>
                    <path d="M51.9527955,64.3098557 L51.9527955,69.764089 L55.9749242,69.764089 L55.9749242,64.3098557 C55.9749242,55.8114674 52.9636212,47.7359058 47.1091061,40.6541336 C43.4870076,36.2146185 41.6757955,30.3378856 42.0758258,24.4817544 C43.0866515,13.3620379 52.1420606,4.67332869 63.2191212,4.27175794 C69.4524924,4.06050818 75.3070076,6.08994474 79.7294924,10.3391388 C84.1519773,14.588333 86.5736591,20.4441371 86.5736591,26.511518 C86.5736591,31.7754304 84.762447,37.018087 81.1403485,41.0769601 C75.7070379,47.334335 72.6745606,56.0443 72.6745606,65.13458 L72.6745606,69.7853448 L76.6966894,69.7853448 L76.6966894,65.13458 C76.6966894,56.8477685 79.3079621,49.3640986 84.1516515,43.6986154 C88.1737803,38.8362738 90.5957879,32.7901487 90.5957879,26.511518 C90.5957879,19.2394248 87.77375,12.3689024 82.5300303,7.31623979 C77.2863106,2.26357716 70.4424697,-0.357751143 63.1982727,0.0438196099 C50.0995606,0.847288128 39.4437045,11.1635361 38.2221136,24.2914334 C37.6113182,31.1619559 39.6329697,38.0324783 44.0554545,43.4867116 C49.1307576,49.7656693 51.9527955,57.0377625 51.9527955,64.3098557 Z" id="Shape"></path>
                    <rect id="Rectangle-path" x="51.7632045" y="102.10852" width="4.02212879" height="4.03761734"></rect>
                    <rect id="Rectangle-path" x="62.4190606" y="102.10852" width="4.02212879" height="4.03761734"></rect>
                    <rect id="Rectangle-path" x="73.0960909" y="102.10852" width="4.02212879" height="4.03761734"></rect>
                </g>
            </g>
        </g>
    </g>
</svg>